<?xml version="1.0" encoding="UTF-8" standalone="no"?>
<!DOCTYPE svg PUBLIC "-//W3C//DTD SVG 1.1//EN" "http://www.w3.org/Graphics/SVG/1.1/DTD/svg11.dtd">
<svg width="100%" height="100%" viewBox="0 0 1080 1080" version="1.1" xmlns="http://www.w3.org/2000/svg" xmlns:xlink="http://www.w3.org/1999/xlink" xml:space="preserve" xmlns:serif="http://www.serif.com/" style="fill-rule:evenodd;clip-rule:evenodd;stroke-linejoin:round;stroke-miterlimit:2;">
    <rect id="BG" x="0" y="0" width="1080" height="1080" style="fill:rgb(4,66,204);"/>
    <g id="zorro" transform="matrix(1.42485,-0.0499481,0.0499481,1.42485,-134.35,-123.209)">
        <g id="Body" transform="matrix(0.957791,-2.77556e-17,2.77556e-17,0.957791,22.4475,22.6854)">
            <path d="M162.44,690.822C172.251,675.517 205.485,606.309 207.886,572.49C209.015,496.701 224.995,450.715 245.931,416.686C248.711,342.869 275.743,290.733 338.957,253.26C318.814,290.365 319.063,316.889 320.885,331.645C379.151,252.753 473.62,171.663 699.796,212.494C621.855,214.113 578.212,250.368 553.988,281.1C699.644,235.206 769.625,334.361 791.938,425.772C718.13,344.112 632.161,348.405 596.16,364.262C720.532,385.177 736.448,501.479 744.527,533.762C679.56,447.961 616.984,442.014 563.175,455.722C705.327,485.017 693.831,648.481 557.716,754.38C637.474,590.327 514.517,520.073 415.554,613.083C366.038,666.126 297.128,745.316 223.095,741.363C213.365,740.525 194.345,739.204 182.617,723.25C176.076,713.912 170,703.987 162.44,690.822Z" style="fill:white;"/>
        </g>
        <g id="Head" transform="matrix(0.957791,-2.77556e-17,2.77556e-17,0.957791,22.4475,22.6854)">
            <path d="M236.862,571.321C228.014,537.365 262.74,460.105 317.975,387.588C371.723,319.439 436.072,277.132 465.855,265.973C470.664,307.574 465.102,357.973 451.943,383.538C498.121,374.163 527.52,377.741 550.712,385.14C499.809,402.779 470.241,430.827 446.973,458.425C482.44,451.987 508.036,464.936 527.953,473.756C499.376,477.456 473.75,490.054 458.934,506.413C477.854,499.881 524.446,511.223 548.611,527.862C435.376,539.553 395.413,604.709 334.964,666.946C300.42,705.086 248.562,746.023 195.455,726.445C207.103,719.856 211.799,711.388 215.355,695.003C203.92,708.668 187.865,718.645 181.142,722.369C176.62,717.401 162.077,695.258 162.068,690.363C188.069,664.645 219.176,610.433 236.862,571.321ZM265.135,586.58C273.983,573.542 281.98,565.766 291.198,562.059C304.534,557.433 310.321,546.971 314.491,536.62C319.995,522.695 317.847,508.891 314.411,500.292C320.746,490.113 331.504,475.79 340.424,466.303C309.963,475.765 279.874,513.826 272.84,538.372C276.381,534.788 285.696,527.496 290.711,525.436C292.666,530.975 295.362,540.999 284.659,551.455C278.595,556.582 267.763,565.915 265.135,586.58ZM373.302,441.214C426.126,405.649 439.335,332.573 441.745,314.501C389.034,342.212 352.417,405.755 351.631,416.9C363.43,413.363 373.23,412.52 384.407,413.173C378.11,421.661 374.225,431.084 373.302,441.214Z" style="fill:rgb(4,66,204);"/>
        </g>
    </g>
</svg>
